Coordinates
version=1
nRows=9
nColumns=24
inDegrees=yes

Units are S.I. units (second, meters, Newtons, ...)
Angles are in degrees.

endheader
time	pelvis_tilt	pelvis_list	pelvis_rotation	pelvis_tx	pelvis_ty	pelvis_tz	hip_flexion_r	hip_adduction_r	hip_rotation_r	knee_angle_r	ankle_angle_r	subtalar_angle_r	mtp_angle_r	hip_flexion_l	hip_adduction_l	hip_rotation_l	knee_angle_l	ankle_angle_l	subtalar_angle_l	mtp_angle_l	lumbar_extension	lumbar_bending	lumbar_rotation
      1.66000000	     -9.12780161	      0.55999935	      1.19476133	     -0.27409097	      1.23525549	     -0.85986216	     33.68268958	      2.38437307	     -2.14545333	    -32.29566437	      7.44435035	     -7.37664268	      7.03401128	     13.96040840	      9.99154414	      7.57512417	    -24.38307649	     44.91279376	      2.48608563	    159.75530321	     -4.54640603	     -3.49751810	     -2.96280916
      1.66500000	     -9.15422612	      0.52782918	      1.20451444	     -0.26823249	      1.23489207	     -0.85946899	     33.48276567	      2.48034404	     -1.91733133	    -29.77646438	      7.35213721	     -7.69133848	      6.78375621	     13.54334748	      9.91451284	      7.52496243	    -24.44605105	     45.22491574	      2.64184897	    159.86141523	     -4.52854723	     -3.49651298	     -3.04058327
      1.67000000	     -9.19456701	      0.52847273	      1.20433179	     -0.26237812	      1.23441886	     -0.85899915	     33.25685469	      2.55777801	     -1.63261215	    -27.20975892	      7.18166123	     -8.06452808	      6.57110470	     13.17041305	      9.86529881	      7.42770074	    -24.56029157	     45.53104552	      2.81436369	    160.03708229	     -4.49492551	     -3.54647939	     -3.07004210
      1.67500000	     -9.25212395	      0.53935665	      1.25445881	     -0.25646633	      1.23386550	     -0.85860506	     33.01240739	      2.56634069	     -1.48493340	    -24.63868360	      6.99104586	     -8.24344493	      6.43791619	     12.82132075	      9.84556083	      7.39190857	    -24.69155927	     45.82742301	      2.97812508	    160.17290839	     -4.43702307	     -3.60192479	     -3.14126060
      1.68000000	     -9.33499060	      0.56346878	      1.34616473	     -0.25051558	      1.23321673	     -0.85828086	     32.78542456	      2.51525496	     -1.47538147	    -22.12664221	      6.81682189	     -8.22646155	      6.33564372	     12.51708047	      9.85796914	      7.41191654	    -24.85827907	     46.11036559	      3.13037506	    160.23444566	     -4.34211896	     -3.66477832	     -3.23895824
      1.68500000	     -9.41909719	      0.60819618	      1.41086005	     -0.24451779	      1.23252345	     -0.85786417	     32.54755378	      2.47034759	     -1.44769762	    -19.67219854	      6.63390852	     -8.21392141	      6.25322821	     12.21371347	      9.87205496	      7.35354219	    -25.02453967	     46.38250522	      3.29267973	    160.33682201	     -4.24009121	     -3.76239676	     -3.30361082
      1.69000000	     -9.53201617	      0.65324807	      1.51327048	     -0.23854443	      1.23175970	     -0.85749393	     32.34661534	      2.39468592	     -1.54294281	    -17.31791992	      6.44310520	     -8.01042880	      6.19524862	     11.98513519	      9.90372381	      7.35075183	    -25.26883245	     46.63649128	      3.45637285	    160.39854210	     -4.10909537	     -3.85956156	     -3.34850491
      1.69500000	     -9.62830874	      0.70075117	      1.60004635	     -0.23249057	      1.23098682	     -0.85706340	     32.10957340	      2.33627473	     -1.66945715	    -15.03768584	      6.29153741	     -7.73370675	      6.16975301	     11.72747130	      9.91867848	      7.29716419	    -25.50063078	     46.89030434	      3.65652731	    160.49965903	     -3.98750026	     -3.96461003	     -3.39741758
      1.70000000	     -9.74299546	      0.74459157	      1.71086213	     -0.22641915	      1.23017349	     -0.85666400	     31.89846671	      2.26950405	     -1.90297957	    -12.87601561	      6.12185816	     -7.30927475	      6.18305682	     11.52052094	      9.93741674	      7.26557805	    -25.79204799	     47.13002010	      3.86377560	    160.58200347	     -3.84048813	     -4.06048346	     -3.43961248
